<svg xmlns="http://www.w3.org/2000/svg" viewBox="0 0 1200 630" width="1200" height="630"><defs><style>text { font-family: Inter,Arial,Helvetica,sans-serif; }</style></defs><rect width="1200" height="630" fill="#F8F7FF" rx="12"/>
<text x="600" y="44" text-anchor="middle" font-size="22" font-weight="700" fill="#1A1A2E">IT-Reife-Matrix: 5 Dimensionen im Überblick</text>
<text x="600" y="68" text-anchor="middle" font-size="13" fill="#4A4A6A">Beispielunternehmen: Jede Dimension auf unterschiedlichem Level</text>
<rect x="300" y="82" width="190" height="38" fill="#E8E8F0" rx="4"/>
<text x="395" y="107" text-anchor="middle" font-size="13" font-weight="700" fill="#4A4A6A">Level 1</text>
<rect x="500" y="82" width="190" height="38" fill="#F0E8FF" rx="4"/>
<text x="595" y="107" text-anchor="middle" font-size="13" font-weight="700" fill="#590DA0">Level 2</text>
<rect x="700" y="82" width="190" height="38" fill="#590DA0" rx="4"/>
<text x="795" y="107" text-anchor="middle" font-size="13" font-weight="700" fill="#FFFFFF">Level 3</text>
<rect x="900" y="82" width="190" height="38" fill="#61D2CE" rx="4"/>
<text x="995" y="107" text-anchor="middle" font-size="13" font-weight="700" fill="#1A1A2E">Level 4</text>
<rect x="60" y="130" width="230" height="84" fill="#FFFFFF" stroke="#E0D9F5" stroke-width="1" rx="4"/>
<text x="175" y="167" text-anchor="middle" font-size="14" font-weight="700" fill="#1A1A2E">Infrastruktur</text>
<text x="175" y="187" text-anchor="middle" font-size="11" fill="#4A4A6A">Stabilität, Uptime</text>
<rect x="300" y="130" width="190" height="84" fill="#E8E8F0" opacity="0.3" stroke="#E0D9F5" stroke-width="1"/>
<rect x="500" y="130" width="190" height="84" fill="#F0E8FF" opacity="0.3" stroke="#E0D9F5" stroke-width="1"/>
<rect x="700" y="130" width="190" height="84" fill="#590DA0" stroke="#E0D9F5" stroke-width="1"/>
<text x="795" y="176" text-anchor="middle" font-size="12" fill="#FFFFFF">Aktiv</text>
<rect x="900" y="130" width="190" height="84" fill="#E8E8F0" opacity="0.15" stroke="#E0D9F5" stroke-width="1"/>
<rect x="60" y="214" width="230" height="84" fill="#FFFFFF" stroke="#E0D9F5" stroke-width="1" rx="4"/>
<text x="175" y="251" text-anchor="middle" font-size="14" font-weight="700" fill="#1A1A2E">Security</text>
<text x="175" y="271" text-anchor="middle" font-size="11" fill="#4A4A6A">Schutz, Resilienz</text>
<rect x="300" y="214" width="190" height="84" fill="#E8E8F0" opacity="0.3" stroke="#E0D9F5" stroke-width="1"/>
<rect x="500" y="214" width="190" height="84" fill="#590DA0" stroke="#E0D9F5" stroke-width="1"/>
<text x="595" y="260" text-anchor="middle" font-size="12" fill="#FFFFFF">Aktiv</text>
<rect x="700" y="214" width="190" height="84" fill="#E8E8F0" opacity="0.15" stroke="#E0D9F5" stroke-width="1"/>
<rect x="900" y="214" width="190" height="84" fill="#E8E8F0" opacity="0.15" stroke="#E0D9F5" stroke-width="1"/>
<rect x="60" y="298" width="230" height="84" fill="#FFFFFF" stroke="#E0D9F5" stroke-width="1" rx="4"/>
<text x="175" y="335" text-anchor="middle" font-size="14" font-weight="700" fill="#1A1A2E">Governance</text>
<text x="175" y="355" text-anchor="middle" font-size="11" fill="#4A4A6A">Entscheide, Prozesse</text>
<rect x="300" y="298" width="190" height="84" fill="#C03030" stroke="#E0D9F5" stroke-width="1"/>
<text x="395" y="344" text-anchor="middle" font-size="12" fill="#FFFFFF">Aktiv</text>
<rect x="500" y="298" width="190" height="84" fill="#E8E8F0" opacity="0.15" stroke="#E0D9F5" stroke-width="1"/>
<rect x="700" y="298" width="190" height="84" fill="#E8E8F0" opacity="0.15" stroke="#E0D9F5" stroke-width="1"/>
<rect x="900" y="298" width="190" height="84" fill="#E8E8F0" opacity="0.15" stroke="#E0D9F5" stroke-width="1"/>
<rect x="60" y="382" width="230" height="84" fill="#FFFFFF" stroke="#E0D9F5" stroke-width="1" rx="4"/>
<text x="175" y="419" text-anchor="middle" font-size="14" font-weight="700" fill="#1A1A2E">Daten</text>
<text x="175" y="439" text-anchor="middle" font-size="11" fill="#4A4A6A">Qualität, Analytics</text>
<rect x="300" y="382" width="190" height="84" fill="#E8E8F0" opacity="0.3" stroke="#E0D9F5" stroke-width="1"/>
<rect x="500" y="382" width="190" height="84" fill="#61D2CE" stroke="#E0D9F5" stroke-width="1"/>
<text x="595" y="428" text-anchor="middle" font-size="12" fill="#1A1A2E">Aktiv</text>
<rect x="700" y="382" width="190" height="84" fill="#E8E8F0" opacity="0.15" stroke="#E0D9F5" stroke-width="1"/>
<rect x="900" y="382" width="190" height="84" fill="#E8E8F0" opacity="0.15" stroke="#E0D9F5" stroke-width="1"/>
<rect x="60" y="466" width="230" height="84" fill="#FFFFFF" stroke="#E0D9F5" stroke-width="1" rx="4"/>
<text x="175" y="503" text-anchor="middle" font-size="14" font-weight="700" fill="#1A1A2E">Sourcing</text>
<text x="175" y="523" text-anchor="middle" font-size="11" fill="#4A4A6A">Lieferanten, Make/Buy</text>
<rect x="300" y="466" width="190" height="84" fill="#E8E8F0" opacity="0.3" stroke="#E0D9F5" stroke-width="1"/>
<rect x="500" y="466" width="190" height="84" fill="#F0E8FF" opacity="0.3" stroke="#E0D9F5" stroke-width="1"/>
<rect x="700" y="466" width="190" height="84" fill="#590DA0" stroke="#E0D9F5" stroke-width="1"/>
<text x="795" y="512" text-anchor="middle" font-size="12" fill="#FFFFFF">Aktiv</text>
<rect x="900" y="466" width="190" height="84" fill="#E8E8F0" opacity="0.15" stroke="#E0D9F5" stroke-width="1"/>
<rect x="300" y="576" width="16" height="16" fill="#C03030" rx="2"/>
<text x="322" y="589" font-size="12" fill="#4A4A6A">Handlungsbedarf</text>
<rect x="472" y="576" width="16" height="16" fill="#590DA0" rx="2"/>
<text x="494" y="589" font-size="12" fill="#4A4A6A">Entwicklungszone</text>
<rect x="662" y="576" width="16" height="16" fill="#61D2CE" rx="2"/>
<text x="684" y="589" font-size="12" fill="#4A4A6A">Strategisch</text>
<rect x="808" y="576" width="16" height="16" fill="#E8E8F0" opacity="0.5" rx="2" stroke="#E0D9F5" stroke-width="1"/>
<text x="830" y="589" font-size="12" fill="#4A4A6A">Noch nicht erreicht</text>
</svg>