<svg xmlns="http://www.w3.org/2000/svg" viewBox="0 0 1200 630" width="1200" height="630"><defs><style>text { font-family: Inter,Arial,Helvetica,sans-serif; }</style></defs><rect width="1200" height="630" fill="#F8F7FF" rx="12"/>
<text x="600" y="50" text-anchor="middle" font-size="22" font-weight="700" fill="#1A1A2E">Die vier Allokationsschlüssel im Vergleich</text>
<rect x="60" y="72" width="1080" height="48" fill="#590DA0" rx="8"/>
<text x="155" y="102" text-anchor="middle" font-size="14" font-weight="700" fill="#FFFFFF">Schlüssel</text>
<text x="400" y="102" text-anchor="middle" font-size="14" font-weight="700" fill="#FFFFFF">Bester Anwendungsfall</text>
<text x="720" y="102" text-anchor="middle" font-size="14" font-weight="700" fill="#FFFFFF">Komplexität</text>
<text x="980" y="102" text-anchor="middle" font-size="14" font-weight="700" fill="#FFFFFF">Beispiel</text>
<line x1="270" y1="72" x2="270" y2="552" stroke="#E0D9F5" stroke-width="1"/>
<line x1="570" y1="72" x2="570" y2="552" stroke="#E0D9F5" stroke-width="1"/>
<line x1="870" y1="72" x2="870" y2="552" stroke="#E0D9F5" stroke-width="1"/>
<rect x="60" y="120" width="1080" height="96" fill="#FFFFFF"/>
<rect x="60" y="120" width="12" height="96" fill="#61D2CE"/>
<text x="180" y="159" text-anchor="middle" font-size="16" font-weight="700" fill="#1A1A2E">Nutzeranzahl</text>
<text x="180" y="181" text-anchor="middle" font-size="12" fill="#4A4A6A">Users</text>
<text x="415" y="161" text-anchor="middle" font-size="13" fill="#4A4A6A">E-Mail, Collaboration,</text>
<text x="415" y="182" text-anchor="middle" font-size="13" fill="#4A4A6A">Standard-Workplace</text>
<rect x="660" y="140" width="120" height="32" fill="#61D2CE" rx="16"/>
<text x="720" y="161" text-anchor="middle" font-size="13" font-weight="700" fill="#1A1A2E">Niedrig</text>
<text x="970" y="158" text-anchor="middle" font-size="12" fill="#4A4A6A">400 User × CHF 80</text>
<text x="970" y="178" text-anchor="middle" font-size="13" font-weight="700" fill="#590DA0">= CHF 32k</text>
<rect x="60" y="216" width="1080" height="96" fill="#F0E8FF"/>
<rect x="60" y="216" width="12" height="96" fill="#590DA0"/>
<text x="180" y="255" text-anchor="middle" font-size="16" font-weight="700" fill="#1A1A2E">Umsatzanteil</text>
<text x="180" y="277" text-anchor="middle" font-size="12" fill="#4A4A6A">Revenue</text>
<text x="415" y="257" text-anchor="middle" font-size="13" fill="#4A4A6A">Strategische Applikationen,</text>
<text x="415" y="278" text-anchor="middle" font-size="13" fill="#4A4A6A">ERP, BI-Tools</text>
<rect x="660" y="236" width="120" height="32" fill="#590DA0" rx="16"/>
<text x="720" y="257" text-anchor="middle" font-size="13" font-weight="700" fill="#FFFFFF">Mittel</text>
<text x="970" y="253" text-anchor="middle" font-size="12" fill="#4A4A6A">Sales 30% → CHF 750k</text>
<text x="970" y="273" text-anchor="middle" font-size="12" fill="#4A4A6A">von CHF 2.5M Budget</text>
<rect x="60" y="312" width="1080" height="96" fill="#FFFFFF"/>
<rect x="60" y="312" width="12" height="96" fill="#E08000"/>
<text x="180" y="349" text-anchor="middle" font-size="15" font-weight="700" fill="#1A1A2E">Transaktions-</text>
<text x="180" y="370" text-anchor="middle" font-size="15" font-weight="700" fill="#1A1A2E">volumen</text>
<text x="415" y="351" text-anchor="middle" font-size="13" fill="#4A4A6A">Payment, Invoicing,</text>
<text x="415" y="372" text-anchor="middle" font-size="13" fill="#4A4A6A">API-lastige Systeme</text>
<rect x="650" y="332" width="140" height="32" fill="#E08000" rx="16"/>
<text x="720" y="353" text-anchor="middle" font-size="13" font-weight="700" fill="#FFFFFF">Hoch</text>
<text x="970" y="349" text-anchor="middle" font-size="12" fill="#4A4A6A">Pro API-Call / Abfrage</text>
<text x="970" y="369" text-anchor="middle" font-size="12" fill="#4A4A6A">direkt verrechnet</text>
<rect x="60" y="408" width="1080" height="96" fill="#F0E8FF"/>
<rect x="60" y="408" width="12" height="96" fill="#C03030"/>
<text x="180" y="447" text-anchor="middle" font-size="16" font-weight="700" fill="#1A1A2E">Verbrauch</text>
<text x="180" y="468" text-anchor="middle" font-size="12" fill="#4A4A6A">Consumption-based</text>
<text x="415" y="449" text-anchor="middle" font-size="13" fill="#4A4A6A">Cloud-Services,</text>
<text x="415" y="470" text-anchor="middle" font-size="13" fill="#4A4A6A">Storage, Compute</text>
<rect x="638" y="428" width="164" height="32" fill="#C03030" rx="16"/>
<text x="720" y="449" text-anchor="middle" font-size="13" font-weight="700" fill="#FFFFFF">Sehr Hoch</text>
<text x="970" y="445" text-anchor="middle" font-size="12" fill="#4A4A6A">AWS Cost Explorer</text>
<text x="970" y="465" text-anchor="middle" font-size="12" fill="#4A4A6A">+ Tagging erforderlich</text>
<rect x="60" y="72" width="1080" height="432" fill="none" stroke="#E0D9F5" stroke-width="1.5" rx="8"/>
<text x="600" y="590" text-anchor="middle" font-size="13" fill="#4A4A6A">Empfehlung: Starten mit dem einfachsten Schlüssel — verfeinern, wenn das Modell etabliert ist</text>
</svg>