<svg xmlns="http://www.w3.org/2000/svg" viewBox="0 0 1200 630" width="1200" height="630"><defs><style>text { font-family: Inter,Arial,Helvetica,sans-serif; }</style></defs><rect width="1200" height="630" fill="#F8F7FF" rx="12"/>
<text x="600" y="50" text-anchor="middle" font-size="22" font-weight="700" fill="#1A1A2E">Wo steht Ihr Unternehmen wirklich?</text>
<circle cx="600" cy="330" r="242" fill="#F0E8FF" stroke="#E0D9F5" stroke-width="2"/>
<circle cx="600" cy="330" r="200" fill="#FFFFFF" stroke="#E0D9F5" stroke-width="1"/>
<line x1="600" y1="88" x2="600" y2="130" stroke="#590DA0" stroke-width="4"/>
<line x1="600" y1="530" x2="600" y2="572" stroke="#1A1A2E" stroke-width="4"/>
<line x1="358" y1="330" x2="400" y2="330" stroke="#1A1A2E" stroke-width="4"/>
<line x1="800" y1="330" x2="842" y2="330" stroke="#61D2CE" stroke-width="4"/>
<line x1="429" y1="189" x2="457" y2="217" stroke="#E0D9F5" stroke-width="2"/>
<line x1="771" y1="189" x2="743" y2="217" stroke="#E0D9F5" stroke-width="2"/>
<line x1="429" y1="471" x2="457" y2="443" stroke="#E0D9F5" stroke-width="2"/>
<line x1="771" y1="471" x2="743" y2="443" stroke="#E0D9F5" stroke-width="2"/>
<text x="600" y="78" text-anchor="middle" font-size="18" font-weight="700" fill="#590DA0">Strategisch</text>
<text x="600" y="598" text-anchor="middle" font-size="16" font-weight="700" fill="#1A1A2E">Grundlegend</text>
<text x="332" y="336" text-anchor="middle" font-size="15" font-weight="700" fill="#1A1A2E">Reaktiv</text>
<text x="868" y="336" text-anchor="middle" font-size="15" font-weight="700" fill="#61D2CE">Skalierbar</text>
<circle cx="600" cy="330" r="60" fill="#590DA0" opacity="0.1"/>
<text x="600" y="324" text-anchor="middle" font-size="14" font-weight="700" fill="#590DA0">IT</text>
<text x="600" y="344" text-anchor="middle" font-size="14" font-weight="700" fill="#590DA0">Reife</text>
<polygon points="600,330 586,400 600,396 614,400" fill="#9B9BB4" opacity="0.55"/>
<polygon points="600,330 586,282 600,140 614,282" fill="#590DA0"/>
<circle cx="600" cy="330" r="10" fill="#FFFFFF" stroke="#590DA0" stroke-width="3"/>
<rect x="652" y="182" width="188" height="42" fill="#590DA0" rx="6"/>
<text x="746" y="199" text-anchor="middle" font-size="11" fill="#FFFFFF">Typisches KMU-Profil:</text>
<text x="746" y="216" text-anchor="middle" font-size="11" fill="#F0E8FF">Operations gut — Strategie schwach</text>
<line x1="652" y1="200" x2="615" y2="232" stroke="#590DA0" stroke-width="1" stroke-dasharray="4,3"/>
</svg>