<svg xmlns="http://www.w3.org/2000/svg" viewBox="0 0 1200 630" width="1200" height="630"><defs><style>text { font-family: Inter,Arial,Helvetica,sans-serif; }</style></defs><rect width="1200" height="630" fill="#F8F7FF" rx="12"/>
<text x="600" y="50" text-anchor="middle" font-size="22" font-weight="700" fill="#1A1A2E">Wo liegt das grösste Optimierungspotenzial?</text>
<text x="600" y="76" text-anchor="middle" font-size="14" fill="#4A4A6A">Typische Einsparbandbreiten in Projekten (Min–Max)</text>
<text x="95" y="148" text-anchor="end" font-size="12" fill="#9B9BB4">50%</text>
<line x1="100" y1="145" x2="1100" y2="145" stroke="#E0D9F5" stroke-width="1" stroke-dasharray="4,4"/>
<text x="95" y="218" text-anchor="end" font-size="12" fill="#9B9BB4">40%</text>
<line x1="100" y1="215" x2="1100" y2="215" stroke="#E0D9F5" stroke-width="1" stroke-dasharray="4,4"/>
<text x="95" y="288" text-anchor="end" font-size="12" fill="#9B9BB4">30%</text>
<line x1="100" y1="285" x2="1100" y2="285" stroke="#E0D9F5" stroke-width="1" stroke-dasharray="4,4"/>
<text x="95" y="358" text-anchor="end" font-size="12" fill="#9B9BB4">20%</text>
<line x1="100" y1="355" x2="1100" y2="355" stroke="#E0D9F5" stroke-width="1" stroke-dasharray="4,4"/>
<text x="95" y="428" text-anchor="end" font-size="12" fill="#9B9BB4">10%</text>
<line x1="100" y1="425" x2="1100" y2="425" stroke="#E0D9F5" stroke-width="1" stroke-dasharray="4,4"/>
<line x1="100" y1="495" x2="1100" y2="495" stroke="#1A1A2E" stroke-width="2"/>
<text x="95" y="499" text-anchor="end" font-size="12" fill="#9B9BB4">0%</text>
<text x="40" y="340" text-anchor="middle" font-size="13" fill="#4A4A6A" transform="rotate(-90,40,340)">Einsparungspotenzial</text>
<rect x="175" y="215" width="170" height="280" fill="#61D2CE" opacity="0.18" rx="6"/>
<rect x="175" y="215" width="170" height="280" fill="none" stroke="#61D2CE" stroke-width="2" rx="6"/>
<line x1="175" y1="320" x2="345" y2="320" stroke="#61D2CE" stroke-width="3" stroke-dasharray="6,3"/>
<text x="260" y="205" text-anchor="middle" font-size="16" font-weight="700" fill="#61D2CE">25–40%</text>
<text x="260" y="522" text-anchor="middle" font-size="15" font-weight="700" fill="#1A1A2E">Cloud</text>
<text x="260" y="542" text-anchor="middle" font-size="11" fill="#4A4A6A">Rightsizing, Reserved Instances</text>
<rect x="425" y="285" width="170" height="210" fill="#590DA0" opacity="0.15" rx="6"/>
<rect x="425" y="285" width="170" height="210" fill="none" stroke="#590DA0" stroke-width="2" rx="6"/>
<line x1="425" y1="390" x2="595" y2="390" stroke="#590DA0" stroke-width="3" stroke-dasharray="6,3"/>
<text x="510" y="275" text-anchor="middle" font-size="16" font-weight="700" fill="#590DA0">15–30%</text>
<text x="510" y="522" text-anchor="middle" font-size="15" font-weight="700" fill="#1A1A2E">Lizenzen</text>
<text x="510" y="542" text-anchor="middle" font-size="11" fill="#4A4A6A">Ungenutzte Seats, Downgrades</text>
<rect x="675" y="215" width="170" height="280" fill="#8719E1" opacity="0.15" rx="6"/>
<rect x="675" y="215" width="170" height="280" fill="none" stroke="#8719E1" stroke-width="2" rx="6"/>
<line x1="675" y1="285" x2="845" y2="285" stroke="#8719E1" stroke-width="3" stroke-dasharray="6,3"/>
<text x="760" y="205" text-anchor="middle" font-size="16" font-weight="700" fill="#8719E1">30–40%</text>
<text x="760" y="522" text-anchor="middle" font-size="15" font-weight="700" fill="#1A1A2E">SaaS</text>
<text x="760" y="542" text-anchor="middle" font-size="11" fill="#4A4A6A">Duplikate, Shadow IT, inaktive Abos</text>
<rect x="925" y="355" width="170" height="140" fill="#1A1A2E" opacity="0.12" rx="6"/>
<rect x="925" y="355" width="170" height="140" fill="none" stroke="#1A1A2E" stroke-width="2" rx="6"/>
<line x1="925" y1="425" x2="1095" y2="425" stroke="#1A1A2E" stroke-width="3" stroke-dasharray="6,3"/>
<text x="1010" y="345" text-anchor="middle" font-size="16" font-weight="700" fill="#1A1A2E">10–20%</text>
<text x="1010" y="522" text-anchor="middle" font-size="15" font-weight="700" fill="#1A1A2E">Infrastruktur</text>
<text x="1010" y="542" text-anchor="middle" font-size="11" fill="#4A4A6A">Hardware-Refresh, Konsolidierung</text>
<text x="600" y="598" text-anchor="middle" font-size="12" fill="#9B9BB4">Strichlinie = untere Grenze (konservativ) | obere Balkenkante = obere Grenze (optimistisch)</text>
</svg>